<?xml version="1.0" standalone="no"?>
<!DOCTYPE svg PUBLIC "-//W3C//DTD SVG 20010904//EN"
 "http://www.w3.org/TR/2001/REC-SVG-20010904/DTD/svg10.dtd">
<svg version="1.0" xmlns="http://www.w3.org/2000/svg"
 width="1460.000000pt" height="1460.000000pt" viewBox="0 0 1460.000000 1460.000000"
 preserveAspectRatio="xMidYMid meet">
<metadata>
Created by potrace 1.11, written by Peter Selinger 2001-2013
</metadata>
<g transform="translate(0.000000,1460.000000) scale(0.100000,-0.100000)"
fill="#000000" stroke="none">
<path d="M2037 10313 c-2 -5 -3 -1362 -3 -3018 l1 -3010 370 -2 c204 -1 393 2
420 7 140 24 189 36 260 63 28 10 60 21 73 24 12 3 22 10 22 16 0 6 3 8 6 5 6
-7 186 93 210 116 8 9 20 16 25 16 19 0 237 229 281 296 73 110 148 273 174
374 28 113 32 140 40 255 3 44 6 91 7 105 1 14 -1 37 -5 53 -4 16 -3 27 3 27
6 0 7 5 4 11 -7 10 -8 74 -2 134 1 17 -1 42 -5 57 -3 15 -2 30 3 34 5 3 7 10
3 15 -3 6 -6 32 -5 57 3 132 3 151 -4 161 -3 6 -1 11 5 11 6 0 8 5 5 11 -7 10
-8 74 -2 134 1 17 -1 42 -5 57 -3 15 -2 30 3 34 5 3 7 10 3 15 -3 6 -6 32 -5
57 3 132 3 151 -4 161 -3 6 -1 11 5 11 6 0 8 5 5 11 -7 10 -8 74 -2 134 1 17
-1 42 -5 57 -3 15 -3 30 2 33 5 3 5 18 1 33 -4 15 -5 38 -1 52 4 14 3 37 -1
52 -4 15 -4 30 1 33 5 3 5 18 1 33 -5 15 -5 36 -1 47 4 11 4 32 -1 47 -4 15
-4 30 1 33 5 3 5 18 1 33 -5 15 -5 36 -1 47 4 11 4 32 -1 47 -4 15 -4 30 1 33
5 3 5 18 1 33 -5 15 -5 36 -1 47 4 11 4 32 -1 47 -4 15 -4 30 1 33 5 3 5 18 1
33 -5 15 -5 36 -1 47 4 11 4 32 -1 47 -4 15 -4 30 1 33 5 3 5 18 1 33 -5 15
-5 36 -1 47 4 11 4 32 -1 47 -4 15 -4 30 1 33 5 3 5 18 1 33 -5 15 -5 36 -1
47 4 11 4 32 -1 47 -4 15 -4 30 1 33 5 3 5 18 1 33 -5 15 -5 36 -1 47 4 11 4
32 -1 47 -4 15 -4 30 1 33 5 3 5 18 0 34 -4 15 -4 34 0 41 4 7 4 26 0 41 -5
17 -5 31 1 35 5 3 7 10 3 15 -3 6 -6 33 -5 60 1 27 1 71 2 98 1 27 -2 54 -6
60 -3 6 -1 11 5 11 6 0 8 5 5 11 -7 10 -8 74 -2 134 1 17 -1 42 -5 57 -3 15
-2 30 3 34 5 3 7 10 3 15 -3 6 -6 33 -5 60 1 27 1 71 2 98 1 27 -2 54 -6 60
-3 6 -1 11 5 11 6 0 8 5 5 11 -7 10 -8 74 -2 134 1 17 -1 42 -5 57 -3 15 -2
30 3 34 5 3 7 10 3 15 -3 6 -6 33 -5 60 1 27 1 71 2 98 1 27 -2 54 -6 60 -3 6
-1 11 5 11 6 0 8 5 5 11 -7 10 -8 74 -2 134 1 17 -1 42 -5 57 -3 15 -2 30 3
34 5 3 7 10 3 15 -3 6 -6 33 -5 60 1 27 1 71 2 98 1 27 -2 54 -6 60 -3 6 -1
11 5 11 6 0 8 5 5 11 -7 10 -8 74 -2 134 1 17 -1 42 -5 57 -3 15 -2 30 3 34 5
3 6 10 2 17 -3 6 -5 33 -4 59 l2 48 -940 0 c-517 0 -942 -3 -944 -7z"/>
<path d="M5437 10211 c-15 -60 -30 -117 -32 -128 -3 -10 -11 -45 -20 -78 -8
-33 -17 -69 -19 -80 -3 -11 -14 -56 -26 -100 -12 -44 -23 -91 -26 -105 -3 -14
-18 -74 -34 -135 -16 -60 -31 -121 -34 -135 -2 -14 -34 -144 -71 -290 -37
-146 -68 -272 -70 -280 -2 -8 -22 -89 -45 -180 -22 -91 -43 -176 -46 -190 -3
-14 -9 -38 -14 -55 -5 -16 -35 -131 -65 -255 -65 -262 -65 -259 -70 -285 -3
-11 -18 -74 -35 -140 -17 -66 -33 -131 -36 -145 -3 -14 -12 -50 -20 -80 -13
-48 -19 -71 -28 -115 -1 -5 -5 -19 -9 -30 -3 -11 -8 -31 -11 -45 -2 -14 -9
-45 -16 -70 -7 -25 -14 -52 -16 -60 -2 -8 -8 -35 -15 -60 -6 -25 -12 -52 -14
-60 -2 -8 -15 -62 -30 -120 -15 -58 -29 -113 -31 -122 -2 -10 -6 -26 -8 -35
-2 -10 -25 -101 -51 -203 -26 -102 -49 -193 -51 -202 -2 -10 -6 -26 -8 -35 -3
-10 -46 -182 -96 -383 -50 -201 -94 -376 -96 -390 -3 -14 -8 -34 -11 -45 -4
-11 -8 -24 -9 -30 -1 -5 -6 -28 -12 -50 -6 -22 -13 -51 -16 -65 -2 -14 -13
-59 -25 -100 -11 -41 -22 -86 -25 -100 -3 -14 -19 -81 -36 -150 -18 -69 -33
-133 -35 -143 -3 -10 -7 -27 -10 -37 -3 -10 -7 -27 -9 -37 -2 -10 -32 -128
-66 -263 -34 -135 -64 -253 -66 -263 -2 -10 -6 -27 -9 -38 -6 -19 11 -19 932
-19 887 0 939 1 940 18 0 9 11 55 23 102 12 47 23 92 25 100 2 8 20 80 40 160
20 80 38 152 40 160 2 8 13 53 25 100 11 47 23 92 25 100 2 8 15 61 29 116 14
56 28 112 30 125 3 13 5 24 6 24 1 0 3 7 5 15 3 13 49 201 59 240 5 20 117
470 122 490 2 8 12 51 24 95 11 44 25 98 29 120 5 22 23 96 41 165 17 69 33
132 35 140 1 8 9 35 16 60 7 25 13 47 14 50 0 3 5 23 10 45 11 52 7 38 50 205
20 80 38 153 40 163 3 10 7 27 10 37 3 10 8 28 10 39 5 22 7 28 25 96 6 22 13
51 15 65 1 14 4 25 5 25 1 0 3 7 5 15 2 8 6 25 9 38 3 12 8 30 10 40 2 9 14
57 26 106 12 49 24 96 25 105 2 9 4 16 5 16 1 0 3 7 5 15 2 8 6 25 9 38 3 12
8 30 10 40 4 15 101 406 111 442 2 8 13 56 25 105 28 115 28 113 40 160 6 22
13 51 16 65 3 14 14 59 25 101 11 42 22 85 24 95 4 19 32 130 42 169 2 11 7
31 10 45 2 14 7 32 10 40 7 17 9 24 17 60 4 22 29 124 41 170 2 8 16 62 30
120 14 58 29 121 35 140 17 59 210 841 210 851 0 5 -374 9 -933 9 l-933 0 -27
-109z"/>
<path d="M9354 10303 c7 -25 27 -105 31 -123 2 -8 67 -267 145 -575 77 -308
142 -567 144 -575 1 -8 8 -33 14 -55 6 -22 13 -51 16 -65 2 -14 20 -86 40
-160 19 -74 38 -150 41 -169 3 -19 8 -38 11 -43 3 -4 7 -17 9 -28 2 -11 36
-147 75 -302 40 -156 73 -290 75 -298 2 -8 31 -125 65 -260 34 -135 63 -252
65 -260 2 -8 60 -242 130 -520 70 -278 128 -512 130 -520 2 -8 33 -134 70
-280 37 -146 68 -272 70 -280 2 -8 29 -115 60 -237 30 -121 58 -232 61 -245 9
-39 12 -53 14 -53 1 0 3 -7 5 -15 10 -48 17 -76 45 -185 32 -126 37 -147 44
-180 3 -11 14 -56 26 -100 12 -44 25 -96 30 -115 4 -19 10 -42 13 -50 3 -8 8
-31 11 -50 3 -19 13 -57 21 -85 9 -27 16 -51 16 -52 0 -2 1 -8 3 -15 2 -7 10
-39 17 -70 l12 -58 943 0 942 0 -10 36 c-5 20 -12 45 -14 55 -8 37 -13 57 -69
279 -31 124 -58 232 -60 240 -2 8 -8 35 -15 60 -7 25 -14 52 -16 60 -2 8 -8
35 -15 60 -6 25 -12 52 -14 60 -2 8 -13 53 -25 100 -12 47 -24 92 -26 100 -2
8 -15 60 -29 115 -14 55 -27 109 -29 120 -3 11 -5 20 -6 20 -1 0 -3 10 -5 21
-3 12 -23 93 -45 180 -22 88 -43 168 -45 179 -2 11 -9 38 -15 60 -6 22 -13 54
-16 70 -3 17 -10 38 -15 48 -5 9 -8 17 -5 17 3 0 0 15 -5 33 -6 17 -12 41 -14
52 -10 46 -14 62 -24 93 -5 17 -8 32 -6 32 3 0 0 12 -6 28 -6 15 -12 34 -14
42 -2 8 -8 35 -14 60 -7 25 -14 54 -16 65 -10 41 -15 61 -25 100 -6 22 -13 50
-15 62 -1 11 -8 36 -14 55 -9 29 -33 122 -47 183 -2 11 -11 47 -19 80 -9 33
-17 67 -19 75 -2 8 -9 33 -14 55 -6 22 -13 51 -16 65 -3 14 -10 43 -16 65 -13
45 -26 97 -39 153 -5 20 -11 44 -14 52 -3 8 -8 29 -11 45 -3 17 -15 66 -27
110 -11 44 -25 98 -30 120 -6 22 -14 56 -19 75 -5 19 -18 73 -30 120 -12 47
-25 101 -30 120 -5 19 -13 53 -19 75 -5 22 -12 50 -15 63 -3 12 -9 32 -12 45
-3 12 -10 38 -14 57 -5 19 -14 55 -20 80 -6 25 -14 53 -16 63 -2 9 -6 25 -9
35 -13 49 -26 101 -35 137 -5 22 -14 60 -20 85 -7 25 -13 52 -15 60 -2 8 -8
30 -14 48 -5 17 -7 32 -4 32 3 0 1 6 -5 13 -6 6 -10 15 -10 20 0 20 -15 94
-22 107 -4 8 -10 29 -13 45 -3 17 -20 84 -37 150 -17 66 -35 138 -40 160 -5
22 -14 58 -20 80 -6 22 -13 54 -16 70 -3 17 -9 41 -15 55 -5 14 -11 34 -13 45
-3 11 -14 58 -25 105 -24 96 -29 117 -35 145 -2 11 -9 32 -14 46 -6 15 -8 29
-5 32 3 3 1 12 -3 19 -5 7 -9 18 -10 23 -1 6 -18 75 -39 155 -21 80 -38 151
-38 158 0 9 -196 12 -944 12 -895 0 -944 -1 -939 -17z"/>
<path d="M12526 10088 c-32 -128 -68 -276 -81 -328 -13 -52 -105 -421 -205
-820 -100 -399 -183 -729 -185 -735 -1 -5 -7 -28 -13 -50 -6 -22 -13 -51 -16
-65 -3 -14 -14 -61 -26 -105 -11 -44 -23 -88 -25 -97 -3 -15 43 -215 74 -316
5 -18 10 -35 10 -37 1 -3 1 -6 2 -7 0 -2 2 -14 4 -28 2 -14 13 -61 25 -105 12
-44 23 -87 25 -95 2 -8 14 -53 25 -100 12 -47 23 -92 25 -100 2 -8 11 -44 20
-80 8 -36 17 -72 19 -80 2 -8 11 -41 19 -72 8 -32 13 -58 10 -58 -3 0 -1 -6 4
-12 6 -7 14 -31 18 -53 10 -50 9 -44 35 -145 12 -47 24 -94 27 -105 9 -40 12
-50 13 -50 1 0 3 -9 5 -20 2 -11 6 -29 8 -40 3 -11 15 -58 26 -105 12 -47 25
-98 30 -115 6 -16 12 -41 15 -55 15 -66 29 -127 100 -405 42 -165 78 -309 80
-320 3 -11 39 -155 81 -320 41 -165 77 -309 80 -320 2 -11 23 -92 45 -180 22
-88 43 -169 45 -180 2 -11 10 -39 16 -63 12 -43 12 -43 53 -40 l41 3 73 290
c40 160 75 297 77 305 1 8 8 35 15 60 7 25 13 52 15 60 2 8 17 71 35 140 18
69 33 132 35 140 2 8 20 80 40 160 20 80 38 152 40 160 2 8 17 71 35 140 18
69 37 145 42 170 5 25 12 52 15 60 3 8 7 22 8 30 5 26 85 343 95 375 5 17 11
41 14 55 3 14 10 43 16 65 6 22 14 58 19 80 5 22 19 76 30 119 12 44 23 89 26
100 6 30 10 48 45 181 17 66 32 129 35 140 6 30 11 49 45 180 18 66 34 129 36
140 3 16 40 163 90 358 8 33 14 57 18 75 2 9 23 91 46 182 23 91 43 172 45
180 2 8 8 35 14 60 7 25 14 54 16 65 3 11 23 90 45 175 22 85 42 164 45 175 2
11 6 30 9 43 3 12 8 30 10 40 2 9 30 118 61 242 31 124 58 232 60 240 2 8 13
53 25 100 12 47 23 92 25 100 2 8 18 71 35 140 18 69 33 132 35 140 2 8 27
107 55 220 28 113 53 214 55 224 3 10 9 33 14 50 5 17 11 41 14 54 l5 22 -942
0 -942 0 -58 -232z"/>
<path d="M7478 10295 c-4 -11 -10 -33 -14 -50 -4 -16 -8 -34 -10 -40 -16 -65
-36 -145 -40 -165 -2 -14 -7 -32 -10 -40 -3 -8 -8 -24 -10 -35 -2 -11 -18 -76
-35 -145 -17 -69 -33 -136 -35 -149 -3 -13 -9 -31 -13 -40 -5 -9 -9 -20 -10
-26 0 -5 -8 -44 -17 -85 -22 -92 -21 -89 -24 -92 -1 -2 -4 -16 -6 -33 -3 -16
-7 -37 -11 -45 -8 -18 -7 -15 -18 -65 -9 -43 -104 -429 -161 -650 -64 -256
-126 -505 -131 -530 -3 -16 -9 -38 -15 -48 -5 -10 -7 -21 -4 -24 2 -3 0 -17
-6 -32 -5 -14 -11 -33 -13 -41 -2 -8 -8 -35 -14 -60 -7 -25 -14 -54 -16 -65
-4 -18 -16 -68 -21 -87 -1 -5 -3 -10 -4 -13 -1 -3 -3 -8 -4 -12 -3 -12 -40
-167 -42 -175 -1 -5 -3 -10 -4 -13 -3 -6 -3 -5 -20 -80 -8 -33 -15 -64 -16
-70 0 -5 -3 -17 -7 -25 -4 -13 -113 -447 -122 -490 -2 -8 -13 -53 -25 -100
-12 -47 -24 -93 -26 -102 -2 -10 -7 -28 -10 -40 -3 -13 -7 -30 -9 -38 -2 -8
-4 -15 -5 -15 -1 0 -3 -9 -5 -20 -4 -23 -10 -46 -24 -92 -5 -18 -8 -33 -6 -33
3 0 0 -11 -5 -25 -5 -14 -12 -36 -14 -48 -9 -42 -14 -63 -56 -227 -23 -91 -43
-172 -45 -180 -2 -8 -13 -53 -25 -100 -12 -47 -23 -92 -25 -100 -2 -8 -19 -80
-39 -160 -45 -184 -49 -212 -48 -340 1 -127 7 -169 39 -280 27 -95 104 -241
166 -319 50 -61 155 -159 223 -207 76 -54 241 -122 364 -150 19 -4 448 -9 953
-11 878 -4 918 -3 913 14 -7 24 -74 303 -80 334 -2 13 -16 72 -30 131 -88 366
-85 354 -92 388 -3 14 -8 34 -11 45 -4 11 -8 25 -9 30 -5 23 -13 61 -18 81 -2
12 -16 71 -30 130 -15 60 -44 183 -66 274 -33 138 -54 228 -97 405 -2 11 -6
29 -8 40 -2 11 -11 46 -19 77 -9 32 -18 70 -21 85 -2 16 -9 43 -14 61 -5 17
-8 32 -6 32 3 0 0 12 -6 26 -8 23 -38 146 -55 224 -3 14 -12 52 -21 85 -8 33
-17 69 -19 80 -5 27 -25 118 -29 130 -7 24 -9 32 -17 65 -5 19 -11 46 -13 60
-3 14 -9 41 -14 60 -10 35 -22 83 -27 108 -5 26 -28 119 -47 192 -10 41 -20
84 -22 95 -1 11 -15 70 -30 130 -15 61 -28 119 -30 130 -4 21 -30 127 -46 185
-5 19 -11 46 -13 60 -2 14 -13 61 -25 105 -11 44 -23 95 -26 114 -3 19 -8 38
-10 42 -3 4 -12 40 -21 80 -8 41 -17 81 -19 89 -2 8 -20 83 -40 165 -19 83
-39 166 -45 185 -8 30 -53 216 -55 230 -1 3 -4 19 -8 35 -4 17 -10 40 -12 53
-3 12 -7 30 -9 40 -12 47 -69 287 -87 362 -11 47 -29 123 -41 170 -11 47 -21
92 -23 100 -2 8 -13 56 -25 105 -12 50 -23 95 -24 100 -22 103 -29 132 -34
140 -4 5 -7 21 -9 35 -1 14 -9 48 -16 75 -10 37 -15 45 -19 30z"/>
<path d="M9200 10270 c-1 -19 -2 -52 -3 -73 -1 -20 1 -37 5 -37 4 0 3 -11 -2
-25 -5 -14 -6 -25 -2 -25 6 0 6 -68 -1 -140 -1 -14 1 -37 5 -52 3 -15 3 -30
-2 -33 -5 -3 -5 -18 -1 -33 4 -15 5 -38 1 -52 -4 -14 -3 -37 1 -52 4 -15 4
-30 -1 -33 -5 -3 -5 -18 -1 -33 5 -15 5 -36 1 -47 -4 -11 -4 -32 1 -47 4 -15
4 -30 -1 -33 -5 -3 -5 -18 -1 -33 5 -15 5 -36 1 -47 -4 -11 -4 -32 1 -47 4
-15 4 -30 -1 -33 -5 -3 -5 -18 -1 -33 5 -15 5 -36 1 -47 -4 -11 -4 -32 1 -47
4 -15 4 -30 -1 -33 -5 -3 -5 -18 0 -34 4 -15 4 -34 0 -41 -4 -7 -4 -26 0 -41
5 -17 5 -31 -1 -35 -5 -3 -7 -10 -3 -15 3 -6 6 -33 5 -60 -1 -27 -1 -71 -2
-98 -1 -27 2 -54 6 -60 3 -6 1 -11 -5 -11 -6 0 -8 -5 -5 -11 7 -10 8 -74 2
-134 -1 -16 1 -42 5 -57 3 -15 3 -30 -2 -33 -5 -3 -5 -18 -1 -33 4 -15 5 -38
1 -52 -4 -14 -3 -37 1 -52 4 -15 4 -30 -1 -33 -5 -3 -5 -18 -1 -33 5 -15 5
-36 1 -47 -4 -11 -4 -32 1 -47 4 -15 4 -30 -1 -33 -5 -3 -5 -18 -1 -33 5 -15
5 -36 1 -47 -4 -11 -4 -32 1 -47 4 -15 4 -30 -1 -33 -5 -3 -5 -18 -1 -33 5
-15 5 -36 1 -47 -4 -11 -4 -32 1 -47 4 -15 4 -30 -1 -33 -5 -3 -5 -18 0 -34 4
-15 4 -34 0 -41 -4 -7 -4 -26 0 -41 5 -17 5 -31 -1 -35 -5 -3 -7 -10 -3 -15 3
-6 6 -33 5 -60 -1 -27 -1 -71 -2 -98 -1 -27 2 -54 6 -60 3 -6 1 -11 -5 -11 -6
0 -8 -5 -5 -11 7 -10 8 -74 2 -134 -1 -16 1 -42 5 -57 3 -15 3 -30 -2 -33 -5
-3 -5 -18 -1 -33 4 -15 5 -38 1 -52 -4 -14 -3 -37 1 -52 4 -15 4 -30 -1 -33
-5 -3 -5 -18 -1 -33 5 -15 5 -36 1 -47 -4 -11 -4 -32 1 -47 4 -15 4 -30 -1
-33 -5 -3 -5 -18 -1 -33 5 -15 5 -36 1 -47 -4 -11 -4 -32 1 -47 4 -15 4 -30
-1 -33 -5 -3 -5 -18 -1 -33 5 -15 5 -36 1 -47 -4 -11 -4 -32 1 -47 4 -15 4
-30 -1 -33 -5 -3 -5 -18 0 -34 4 -15 4 -34 0 -41 -4 -7 -4 -26 0 -41 5 -17 5
-31 -1 -35 -5 -3 -7 -10 -3 -15 6 -10 6 -29 3 -161 -1 -25 2 -51 6 -57 3 -6 1
-11 -5 -11 -6 0 -8 -5 -5 -11 7 -10 8 -74 2 -134 -1 -16 1 -42 5 -57 3 -15 3
-30 -2 -33 -5 -3 -5 -18 -1 -33 4 -15 5 -38 1 -52 -4 -14 -3 -37 1 -52 4 -15
4 -30 -1 -33 -5 -3 -5 -18 -1 -33 5 -15 5 -36 1 -47 -4 -11 -4 -32 1 -47 4
-15 4 -30 -1 -33 -5 -3 -5 -18 -1 -33 5 -15 5 -36 1 -47 -4 -11 -4 -32 1 -47
4 -15 4 -30 -1 -33 -5 -3 -5 -18 -1 -33 5 -15 5 -36 1 -47 -4 -11 -4 -32 1
-47 4 -15 4 -30 -1 -33 -5 -3 -5 -18 0 -34 4 -15 4 -34 0 -41 -4 -7 -4 -26 0
-41 5 -17 5 -31 -1 -35 -5 -3 -7 -10 -3 -15 3 -6 6 -33 5 -60 -1 -27 -1 -71
-2 -98 -1 -27 2 -54 6 -60 3 -6 1 -11 -5 -11 -6 0 -8 -5 -5 -11 7 -10 8 -74 2
-134 -1 -16 1 -42 5 -57 3 -15 3 -30 -2 -33 -5 -3 -5 -18 -1 -33 4 -15 5 -38
1 -52 -4 -14 -3 -37 1 -52 4 -15 4 -30 -1 -33 -5 -3 -5 -18 -1 -33 5 -15 5
-36 1 -47 -4 -11 -4 -32 1 -47 4 -15 4 -30 -1 -33 -5 -3 -5 -18 -2 -33 7 -25
8 -64 2 -87 -8 -35 -17 -35 755 -35 471 0 755 4 755 10 0 5 -7 35 -16 67 -8
32 -17 69 -20 83 -3 14 -11 48 -19 75 -8 28 -17 61 -19 75 -3 14 -17 70 -31
125 -14 55 -28 111 -31 125 -3 14 -9 39 -15 56 -5 17 -11 40 -13 50 -7 32
-224 898 -230 914 -3 8 -7 26 -10 40 -2 14 -9 45 -16 70 -7 25 -14 52 -15 60
-2 8 -20 80 -40 160 -20 80 -45 179 -55 220 -10 41 -28 113 -40 160 -12 47
-23 92 -25 100 -2 8 -8 35 -15 60 -7 25 -14 53 -16 62 -2 10 -6 26 -8 36 -2 9
-9 35 -15 57 -6 22 -12 49 -14 60 -2 11 -7 27 -10 35 -3 8 -12 44 -21 80 -13
56 -38 160 -51 210 -3 8 -9 35 -15 60 -6 25 -13 52 -17 60 -3 8 -7 24 -8 35
-1 11 -15 65 -29 120 -15 55 -29 111 -31 125 -3 14 -10 41 -15 60 -6 19 -13
45 -16 58 -2 12 -18 78 -35 145 -17 67 -33 133 -36 146 -2 14 -6 28 -9 33 -3
5 -7 18 -10 31 -8 42 -12 62 -29 122 -9 33 -18 70 -21 82 -2 11 -20 83 -40
160 -19 76 -39 156 -44 178 -4 22 -27 112 -50 200 -23 88 -43 169 -45 181 -3
11 -36 144 -74 295 -39 150 -72 285 -75 299 -3 14 -17 70 -31 125 -15 55 -28
107 -30 115 -2 8 -8 35 -15 60 -6 25 -18 72 -26 105 -7 33 -25 101 -38 150
-19 71 -25 83 -26 55z"/>
<path d="M14580 10243 c-6 -32 -18 -75 -26 -95 -7 -21 -12 -38 -10 -38 3 0 0
-16 -6 -36 -5 -20 -11 -46 -14 -57 -2 -11 -8 -34 -13 -51 -6 -17 -12 -42 -14
-56 -2 -14 -6 -32 -9 -40 -11 -29 -49 -187 -51 -208 -1 -12 -4 -22 -7 -22 -3
0 -6 -8 -7 -17 -1 -10 -27 -117 -58 -238 -70 -276 -66 -256 -69 -280 -2 -11
-16 -65 -30 -120 -15 -55 -29 -109 -32 -120 -9 -45 -14 -63 -29 -119 -8 -33
-17 -67 -19 -75 -1 -9 -8 -36 -16 -61 -7 -25 -14 -57 -15 -71 -1 -15 -6 -32
-9 -38 -4 -6 -10 -24 -13 -39 -8 -41 -11 -57 -13 -57 -1 0 -3 -7 -5 -15 -1 -8
-26 -107 -55 -220 -29 -113 -57 -225 -62 -250 -13 -62 -16 -75 -18 -75 -2 0
-7 -22 -15 -60 -3 -16 -10 -44 -16 -62 -5 -17 -12 -43 -15 -57 -2 -14 -20 -83
-38 -154 -18 -70 -39 -152 -46 -182 -6 -30 -18 -77 -26 -105 -14 -48 -142
-561 -149 -598 -2 -10 -7 -27 -10 -37 -3 -10 -7 -27 -9 -37 -2 -10 -16 -65
-31 -123 -15 -58 -29 -113 -31 -123 -2 -10 -6 -27 -9 -37 -3 -10 -7 -27 -9
-37 -2 -10 -9 -38 -16 -63 -7 -25 -14 -53 -16 -62 -9 -40 -42 -172 -79 -313
-14 -55 -28 -111 -31 -124 -4 -20 -23 -99 -39 -161 -2 -8 -4 -15 -5 -15 -1 0
-3 -10 -6 -23 -2 -12 -13 -57 -24 -101 -11 -43 -23 -87 -25 -97 -4 -17 -28
-110 -39 -154 -7 -26 -26 -104 -31 -126 -3 -11 -23 -94 -46 -185 -22 -90 -42
-171 -44 -179 -2 -8 -22 -86 -44 -173 -23 -87 -41 -162 -41 -167 0 -6 273 -10
755 -10 l755 0 0 3010 c0 1656 -2 3010 -4 3010 -3 0 -10 -26 -16 -57z"/>
<path d="M447 7764 c-2 -3 -104 -5 -226 -5 l-222 0 4 -1217 c4 -1036 7 -1267
17 -1267 1 0 3 -17 5 -37 2 -21 9 -46 14 -57 6 -11 11 -28 11 -39 0 -10 7 -33
16 -51 9 -17 17 -38 18 -46 3 -23 89 -188 108 -209 10 -11 18 -26 18 -33 0 -7
4 -13 8 -13 4 0 16 -14 26 -31 22 -38 190 -209 205 -209 6 0 11 -4 11 -8 0 -4
13 -16 30 -25 16 -10 35 -23 42 -30 27 -25 208 -122 208 -112 0 3 10 -1 22 -9
13 -8 43 -19 68 -26 25 -6 52 -14 60 -17 8 -3 22 -7 30 -9 48 -9 87 -18 100
-22 8 -2 206 -7 440 -9 l425 -5 -1 1184 c-1 650 -4 1208 -8 1238 -19 145 -66
292 -134 420 -49 90 -56 103 -67 116 -5 7 -21 27 -35 46 -32 43 -108 126 -141
154 -14 13 -43 39 -65 58 -21 20 -43 36 -47 36 -4 0 -18 9 -30 20 -27 25 -254
140 -277 140 -9 0 -21 5 -28 12 -7 7 -12 9 -12 5 0 -4 -8 -3 -19 2 -10 6 -33
13 -52 16 -19 3 -54 11 -79 17 -25 6 -128 12 -230 14 -102 2 -190 6 -197 8 -6
3 -13 2 -16 0z"/>
</g>
</svg>
