<svg width="365" height="151" viewBox="0 0 365 151" fill="none" xmlns="http://www.w3.org/2000/svg">
<path d="M280.837 0H233.766L271.611 151H318.682L280.837 0Z" fill="#795C5C"/>
<path d="M299.289 61.2264L314.634 0H361.705L323.86 151H321.789L299.289 61.2264Z" fill="#795C5C"/>
<path d="M267.845 151H230V0L267.845 151Z" fill="#795C5C"/>
<path d="M327.155 151H365V0L327.155 151Z" fill="#795C5C"/>
<path d="M136.593 0H183.35L145.757 151H99L136.593 0Z" fill="#427B58"/>
<path d="M187.09 0L223 151H180.657C164.833 151 153.226 136.025 157.073 120.573L187.09 0Z" fill="#427B58"/>
<path d="M50.8846 0H98V119.759C98 137.013 83.9887 151 66.7048 151H50.8846V0Z" fill="#93AD2B"/>
<path d="M0 64.015H16.9615C33.615 64.015 47.1154 77.5022 47.1154 94.1397V151H30.1538C13.5003 151 0 137.513 0 120.875V64.015Z" fill="#93AD2B"/>
</svg>
